<svg xmlns="http://www.w3.org/2000/svg" width="24" height="24" viewBox="0 0 24 24"><defs><style>.a{fill:#03c;stroke:#03c;stroke-width:2px;}.b{fill:#fff;}.c{fill:#f8f8f8;}.d{stroke:none;}.e{fill:none;}</style></defs><g class="a"><circle class="d" cx="12" cy="12" r="12"/><circle class="e" cx="12" cy="12" r="11"/></g><g transform="translate(-2996 331)"><g transform="translate(2961.799 -426.158)"><path class="b" d="M133.668,119.964a.4.4,0,0,1-.321-.093,23.6,23.6,0,0,1-3.786-5.7.426.426,0,0,1,.014-.428c1.2-2.172,2.391-4.344,3.6-6.516a.7.7,0,0,1,.3-.288c.2-.079.326.065.442.214,1.014,1.326,6.233,8.144,7.823,10.228.116.153.34.451-.042.6C140.97,118.215,134.97,119.727,133.668,119.964Z" transform="translate(-88.411 -7.844)"/><path class="b" d="M300.9,192.3a3.87,3.87,0,0,1,3.936,5.133C303.508,195.7,302.228,194.039,300.9,192.3Z" transform="translate(-253.086 -90.81)"/><path class="c" d="M40.061,275.484a2.161,2.161,0,0,1-2.172-.856,8.007,8.007,0,0,1-.912-1.549,2.239,2.239,0,0,1,.474-2.5c.716-.767,1.493-1.479,2.256-2.2.274-.26.586-.484.9-.74.009,0,.019,0,.023,0a24.936,24.936,0,0,0,3.865,5.842.016.016,0,0,1,0,.023c-.349.246-1.8,1.219-2.293,1.5a.031.031,0,0,0,.028.056c.637-.256,2.219-.957,2.219-.957s1.633,2.348,1.065,3.027a1.559,1.559,0,0,1-1.065.642s-.581.051-1.912-.986a7.261,7.261,0,0,0-2.247-1.26Z" transform="translate(0 -161.085)"/><rect class="b" width="1" height="3" rx="0.5" transform="translate(49.214 97.098) rotate(9)"/><rect class="b" width="1" height="2" rx="0.5" transform="matrix(0.588, 0.809, -0.809, 0.588, 53.621, 100.525)"/><rect class="b" width="1" height="3" rx="0.5" transform="matrix(-0.07, 0.998, -0.998, -0.07, 56.257, 105.342)"/></g></g></svg>