<svg xmlns="http://www.w3.org/2000/svg" xmlns:xlink="http://www.w3.org/1999/xlink" width="107" height="107" viewBox="0 0 107 107">
	<defs>
		<style>
			.a,.b{fill:#fff;}.a{stroke:#707070;}.c{clip-path:url(#c);}.d,.e,.g,.h{fill:none;stroke-miterlimit:10;}.d,.h{stroke:#03c;}.d,.g,.h{stroke-linecap:round;}.d,.e{stroke-width:1.5px;}.e,.g{stroke:#0cdac1;}.f{fill:#0cdac1;}.g,.h{stroke-width:2px;}
		</style>
		<filter id="a" x="0" y="0" width="107" height="107" filterUnits="userSpaceOnUse">
			<feOffset input="SourceAlpha" />
			<feGaussianBlur stdDeviation="2" result="b" />
			<feFlood flood-opacity="0.149" />
			<feComposite operator="in" in2="b" />
			<feComposite in="SourceGraphic" />
		</filter>
		<clipPath id="c">
			<rect class="a" width="64" height="64" transform="translate(0.048 0.048)" />
		</clipPath>
	</defs>
	<g transform="translate(6 6)">
		<g class="i" transform="matrix(1, 0, 0, 1, -6, -6)">
			<rect class="b" width="95" height="95" rx="4" transform="translate(6 6)" />
		</g>
		<g class="c" transform="translate(15.452 16.452)">
			<g transform="translate(3.007 3.007)">
				<path class="d" d="M131.677,110.08l-3.147-3.187a.577.577,0,0,0-.774-.039l-2.269,1.875a13.023,13.023,0,0,0-3.541-1.5l-.289-2.924a.564.564,0,0,0-.577-.511h-4.524a.564.564,0,0,0-.577.511l-.275,2.924a12.72,12.72,0,0,0-3.541,1.5l-2.256-1.875a.577.577,0,0,0-.774.039l-3.187,3.187a.577.577,0,0,0-.039.774l1.875,2.269a13.022,13.022,0,0,0-1.495,3.541l-2.964.275a.577.577,0,0,0-.525.577v4.524a.577.577,0,0,0,.525.577l2.938.289a12.747,12.747,0,0,0,1.495,3.541l-1.875,2.256a.577.577,0,0,0,.039.774l3.2,3.2a.577.577,0,0,0,.774.039l2.269-1.875a13.022,13.022,0,0,0,3.541,1.495l.289,2.924a.564.564,0,0,0,.577.511h4.524a.564.564,0,0,0,.577-.511l.289-2.938a12.721,12.721,0,0,0,3.541-1.495l2.243,1.875a.577.577,0,0,0,.774-.039l3.187-3.187a.577.577,0,0,0,.039-.774l-1.875-2.269a13.023,13.023,0,0,0,1.5-3.541l2.9-.289a.577.577,0,0,0,.525-.577v-4.511a.577.577,0,0,0-.525-.577l-2.938-.289a12.747,12.747,0,0,0-1.495-3.541" transform="translate(-89.778 -90.645)" />
				<path class="e" d="M164.962,156.6a9.062,9.062,0,1,0,9.062,9.062A9.062,9.062,0,0,0,164.962,156.6Z" transform="translate(-135.914 -136.522)" />
				<path class="f" d="M205.742,177.632a1.77,1.77,0,0,1,1.77,1.77.564.564,0,1,0,1.115,0,2.885,2.885,0,0,0-2.335-2.833V175.8a.564.564,0,1,0-1.115,0v.774a2.885,2.885,0,0,0,.564,5.7,1.77,1.77,0,0,1,.013,3.528h-.039a1.77,1.77,0,0,1-1.744-1.757.564.564,0,1,0-1.115,0,2.885,2.885,0,0,0,2.321,2.833v.879a.564.564,0,1,0,1.115,0v-.879a2.885,2.885,0,0,0-.564-5.7,1.77,1.77,0,1,1,0-3.528" transform="translate(-176.707 -152.636)" />
				<path class="g" d="M28.1,51.843a25.913,25.913,0,0,1,6.754-14.491l.262-.289A25.953,25.953,0,0,1,50.184,29.3" transform="translate(-24.874 -25.917)" />
				<path class="g" d="M11.054,172.91l-4.013,3.056a.341.341,0,0,1-.485-.066l-3.056-4" transform="translate(-3.5 -149.816)" />
				<path class="h" d="M50.532,275.25a25.94,25.94,0,0,1-14.347-7.042l-.315-.3A25.94,25.94,0,0,1,28.5,253.1" transform="translate(-25.221 -220.367)" />
				<path class="h" d="M165.864,388.5l2.872,4.144a.341.341,0,0,1-.092.485L164.5,396" transform="translate(-143.386 -338.011)" />
				<path class="h" d="M275.032,255.8a25.926,25.926,0,0,1-6.964,14.084l-.354.354A25.94,25.94,0,0,1,253,277.6" transform="translate(-220.281 -222.713)" />
				<path class="h" d="M388.9,253.233l4.039-3.016a.341.341,0,0,1,.485.066l3.016,4.039" transform="translate(-338.359 -217.798)" />
				<path class="h" d="M253,29.3a25.953,25.953,0,0,1,15.343,8.013l.354.38a25.926,25.926,0,0,1,6.269,12.97" transform="translate(-220.281 -25.917)" />
				<path class="h" d="M250.5,11.067l-3.121-3.96a.341.341,0,0,1,.052-.485L251.4,3.5" transform="translate(-215.333 -3.5)" />
			</g>
		</g>
	</g>
</svg>
