<svg xmlns="http://www.w3.org/2000/svg" xmlns:xlink="http://www.w3.org/1999/xlink" width="24" height="24" viewBox="0 0 24 24"><defs><style>.a{fill:#03c;stroke:#03c;}.a,.b{stroke-width:2px;}.b,.e{fill:#b5b5b5;}.b{stroke:#b5b5b5;}.c{clip-path:url(#a);}.d{fill:#fff;}.f{stroke:none;}.g{fill:none;}</style><clipPath id="a"><circle class="a" cx="12" cy="12" r="12" transform="translate(2996 -331)"/></clipPath></defs><g class="b"><circle class="f" cx="12" cy="12" r="12"/><circle class="g" cx="12" cy="12" r="11"/></g><g class="c" transform="translate(-2996 331)"><g transform="translate(2999.146 -326.72)"><path class="d" d="M25.821,105.338h0l-.381-.742a.4.4,0,0,0-.076-.1l-.5-.976c-.127-.247-.247-.508-.355-.761l-1.244-2.948a1.136,1.136,0,0,0-.9-.69l-2.138-.26c-.641-.078-2.17-.13-3.116-.156l-.609.007c-.609.026-1.225.078-1.827.15l-2.138.26a1.123,1.123,0,0,0-.9.69l-1.244,2.948L9.457,104.6l-.374.735v.007a4.668,4.668,0,0,0-.482,2.07v4.64a1.032,1.032,0,0,0,1.015,1.041h2.5a.914.914,0,0,0,.895-.9l.019-.827v-.254h8.833v.254l.025.827a.914.914,0,0,0,.895.9h2.513a1.032,1.032,0,0,0,1.015-1.041v-4.64A4.762,4.762,0,0,0,25.821,105.338Zm-12.665,2.017a.4.4,0,0,1-.393.371h-.032c-.774-.065-1.567-.143-2.348-.234a.4.4,0,0,1-.343-.449.4.4,0,0,1,.438-.351c.774.091,1.555.169,2.322.234A.4.4,0,0,1,13.156,107.356Zm6.923.54c-.742.033-1.5.046-2.259.046h-.489c-.749-.007-1.51-.026-2.265-.065a.4.4,0,0,1,.038-.807c.749.033,1.5.059,2.234.059H17.5c.857.007,1.713-.006,2.551-.046a.392.392,0,0,1,.406.39A.4.4,0,0,1,20.079,107.9Zm4.619-.475c-.7.1-1.415.2-2.126.273h-.032a.4.4,0,0,1-.406-.364.4.4,0,0,1,.349-.443c.7-.078,1.4-.163,2.094-.267a.4.4,0,0,1,.444.338A.39.39,0,0,1,24.7,107.421Z" transform="translate(-8.6 -98.7)"/><path class="e" d="M44.381,118.928a.317.317,0,0,0,.279-.449c-.032-.065-.057-.13-.082-.189l-.971-2.3a1.255,1.255,0,0,0-1-.761l-1.612-.2c-.539-.065-1.821-.111-2.608-.13l-.508.007c-.514.02-1.022.065-1.529.124l-1.612.2a1.255,1.255,0,0,0-1,.761l-.971,2.3-.1.208a.317.317,0,0,0,.279.456ZM34.375,122.5a.4.4,0,0,1-.393.371H33.95c-.774-.065-1.567-.143-2.348-.234a.4.4,0,0,1-.343-.449.4.4,0,0,1,.438-.351c.774.091,1.555.169,2.322.234A.4.4,0,0,1,34.375,122.5Zm6.923.54c-.742.033-1.5.046-2.259.046H38.55c-.749-.007-1.51-.026-2.265-.065a.4.4,0,0,1,.038-.807c.749.033,1.5.059,2.234.059h.159c.857.007,1.713-.006,2.551-.046a.392.392,0,0,1,.406.39A.4.4,0,0,1,41.3,123.041Zm4.619-.475c-.7.1-1.415.2-2.126.273h-.032a.4.4,0,0,1-.406-.364.4.4,0,0,1,.349-.443c.7-.078,1.4-.163,2.094-.267a.4.4,0,0,1,.444.338A.39.39,0,0,1,45.917,122.566Z" transform="translate(-29.819 -113.846)"/></g></g></svg>