<svg xmlns="http://www.w3.org/2000/svg" xmlns:xlink="http://www.w3.org/1999/xlink" width="24" height="24" viewBox="0 0 24 24"><defs><style>.a{fill:#03c;stroke:#03c;}.a,.b{stroke-width:2px;}.b{fill:#b5b5b5;stroke:#b5b5b5;}.c{clip-path:url(#a);}.d{fill:#fff;}.e{stroke:none;}.f{fill:none;}</style><clipPath id="a"><circle class="a" cx="11" cy="11" r="11" transform="translate(2997 -330)"/></clipPath></defs><g class="b"><circle class="e" cx="12" cy="12" r="12"/><circle class="f" cx="12" cy="12" r="11"/></g><g class="c" transform="translate(-2996 331)"><g transform="translate(2999.354 -324.849)"><path class="d" d="M9.388,1.4,1.47.194A1.277,1.277,0,0,0,.447.475,1.288,1.288,0,0,0,0,1.44v15.18a.723.723,0,0,0,.72.72H3.062V13.559A1.258,1.258,0,0,1,4.323,12.3h1.8a1.258,1.258,0,0,1,1.261,1.261v3.783h3.062V2.643A1.262,1.262,0,0,0,9.388,1.4Zm-5.425,9.28H2.882a.54.54,0,0,1,0-1.081H3.963a.54.54,0,1,1,0,1.081Zm0-2.161H2.882a.54.54,0,0,1,0-1.081H3.963a.54.54,0,1,1,0,1.081Zm0-2.161H2.882a.54.54,0,0,1,0-1.081H3.963a.54.54,0,1,1,0,1.081Zm0-2.161H2.882a.54.54,0,1,1,0-1.081H3.963a.54.54,0,1,1,0,1.081Zm3.6,6.484H6.484a.54.54,0,0,1,0-1.081H7.565a.54.54,0,0,1,0,1.081Zm0-2.161H6.484a.54.54,0,0,1,0-1.081H7.565a.54.54,0,0,1,0,1.081Zm0-2.161H6.484a.54.54,0,0,1,0-1.081H7.565a.54.54,0,0,1,0,1.081Zm0-2.161H6.484a.54.54,0,1,1,0-1.081H7.565a.54.54,0,1,1,0,1.081Z"/><path class="d" d="M20.63,10.425,15.5,9.351V19.905h4.863a1.262,1.262,0,0,0,1.261-1.261V11.657A1.255,1.255,0,0,0,20.63,10.425Zm-1.708,7.319H17.842a.54.54,0,0,1,0-1.081h1.081a.54.54,0,0,1,0,1.081Zm0-2.161H17.842a.54.54,0,0,1,0-1.081h1.081a.54.54,0,0,1,0,1.081Zm0-2.161H17.842a.54.54,0,0,1,0-1.081h1.081a.54.54,0,0,1,0,1.081Z" transform="translate(-4.333 -2.564)"/></g></g></svg>