<svg xmlns="http://www.w3.org/2000/svg" width="289.4" height="185.115" viewBox="0 0 289.4 185.115"><defs><style>.a{fill:#fff;}.b{fill:#0cdac1;}.c{fill:#03c;}</style></defs><g transform="translate(-22.4 -121.785)"><path class="a" d="M277.8,239.4v-2.8c0-5.6-1.4-6.9-7-6.9H225.9c-4.3,0-6,1.7-6,6,0,6.9.1,13.8,0,20.8-.1,7.4-.3,14.7,4.9,21.2H208.3c.7-3.1,1.8-6.1,1.8-9.1q.15-45.9.1-91.8a14.318,14.318,0,0,0-14.3-14.4c-2.2,0-4.4-.1-6.6,0a3.963,3.963,0,0,1-4.2-2.3c-6.5-11.2-127.5,2.5-133.5,2.2-8.4-.4-14.6,6.2-14.7,14.6-.1,6,0,12,0,18.1,0,3.8,1.8,5.9,4.9,5.8,3-.1,4.7-2,4.7-5.7V178.5c0-5.2,1.4-6.6,6.6-6.6H194.3c4.8,0,6.3,1.5,6.3,6.3v80.3H46.5V239.9c0-3.3-2-5.4-4.8-5.3-2.9,0-4.7,2-4.8,5.4,0,5.8-.1,11.6,0,17.5.2,6.8-1.2,13.9,2.6,20.5h-11c-4.5,0-6.1,1.7-6.1,6.2v16c0,5.3,1.4,6.7,6.8,6.7H304.9c4.9,0,6.5-1.6,6.5-6.5V284.1c0-4.5-1.7-6.2-6.2-6.2h-32c1.6-3.5,2.9-6.4,4.3-9.6h4.6c8.4-.2,14.6-6.3,14.7-14.7v-8.1c0-4.3-1.7-6-6-6.1Zm-154.3-9.7a14.45,14.45,0,1,0-14.4-14.4A14.515,14.515,0,0,0,123.5,229.7Zm110.9-24.1c0,3.2-.1,6.4,0,9.6s1.9,5,4.8,4.9c2.9,0,4.7-1.8,4.8-5q.15-9.45,0-18.9a4.674,4.674,0,0,0-4.8-5c-2.8,0-4.7,2-4.8,5.1S234.4,202.5,234.4,205.6Zm28.9.4c0-3.2.1-6.4,0-9.6-.1-3.1-1.9-5.1-4.7-5.1-2.8-.1-4.8,1.9-4.9,5q-.15,9.6,0,19.2a4.488,4.488,0,0,0,4.7,4.8c2.9,0,4.8-1.7,4.9-4.9S263.3,209.1,263.3,206ZM46.5,217.8c0-5.1-1.5-7.4-4.9-7.3-3.3.1-4.7,2.3-4.7,7.2,0,5.2,1.4,7.3,4.9,7.2C45.2,224.9,46.5,222.9,46.5,217.8Z"/><path class="b" d="M5230.2,254.4a26.4,26.4,0,1,1-26.4,26.4,26.426,26.426,0,0,1,26.4-26.4m0-9.6a36,36,0,1,0,36,36,36,36,0,0,0-36-36Z" transform="translate(-5106.401 -123.015)"/><rect class="a" width="163" height="97" transform="translate(42.9 167.2)"/><path class="c" d="M196,162.3a14.382,14.382,0,0,1,14.3,14.4q.15,45.9-.1,91.8c0,3-1.2,6-1.8,9.1h16.5c-5.2-6.5-5-13.8-4.9-21.2.1-6.9,0-13.8,0-20.8,0-4.4,1.7-6,6-6h44.9c5.6,0,6.9,1.3,7,6.9v2.8h13.3c4.3,0,5.9,1.7,6,6.1v8.1c-.1,8.4-6.3,14.5-14.7,14.7h-4.6c-1.4,3.2-2.8,6.2-4.3,9.6h32c4.5,0,6.2,1.6,6.2,6.2v16.3c0,4.9-1.6,6.5-6.5,6.5H29.5c-5.4,0-6.8-1.4-6.8-6.7v-16c0-4.6,1.6-6.2,6.1-6.2h11c-3.7-6.7-2.4-13.7-2.6-20.5-.1-5.8-.1-11.6,0-17.5,0-3.3,1.9-5.4,4.8-5.4s4.8,2,4.8,5.3c.1,6.1,0,12.2,0,18.6H200.9V178.1c0-4.7-1.5-6.2-6.3-6.3H53.4c-5.2,0-6.6,1.4-6.6,6.6V195c0,3.7-1.6,5.7-4.7,5.7-3.2.1-4.9-1.9-4.9-5.8,0-6-.1-12,0-18.1.1-8.4,6.3-15,14.7-14.6C51.6,162.4,193.8,162.3,196,162.3ZM301.8,287.8H32.4V297H301.8ZM46.6,268.4c.5,6.2,4.2,9.5,10.5,9.5H190.7c5.9,0,9.8-3.8,9.8-9.5Zm183-28.9v3c0,7.3-.1,14.6.1,22a14,14,0,0,0,13.7,13.4q5.1.15,10.2,0c8.3-.1,14.4-6.1,14.5-14.4.1-4.8,0-9.6,0-14.4v-9.5C255.1,239.5,242.5,239.5,229.6,239.5Zm48.3,19c7.2,1,10.9-.4,9-9.3h-9Z"/><path class="b" d="M123.5,229.7A14.4,14.4,0,1,1,138,215.6,14.365,14.365,0,0,1,123.5,229.7Zm.1-9.6a4.786,4.786,0,0,0,4.9-4.6,4.727,4.727,0,0,0-4.9-4.9,4.781,4.781,0,0,0-4.7,4.8A4.572,4.572,0,0,0,123.6,220.1Z"/><path class="b" d="M234.4,205.6c0-3.1-.1-6.2,0-9.3s2-5.1,4.8-5.1a4.622,4.622,0,0,1,4.8,5q.15,9.45,0,18.9c0,3.2-1.9,5-4.8,5s-4.7-1.8-4.8-4.9C234.3,212,234.4,208.8,234.4,205.6Z"/><path class="b" d="M263.3,206c0,3.1.1,6.2,0,9.3s-2,4.9-4.9,4.9c-2.8,0-4.6-1.8-4.7-4.8q-.15-9.6,0-19.2a4.7,4.7,0,0,1,4.9-5c2.8.1,4.6,2,4.7,5.1C263.4,199.5,263.3,202.8,263.3,206Z"/><path class="c" d="M46.5,217.8c0,5.1-1.3,7.1-4.7,7.2-3.5.1-4.9-2-4.9-7.2,0-5,1.4-7.2,4.7-7.2C45,210.4,46.5,212.7,46.5,217.8Z"/></g></svg>