<svg xmlns="http://www.w3.org/2000/svg" xmlns:xlink="http://www.w3.org/1999/xlink" width="107" height="107" viewBox="0 0 107 107">
	<defs>
		<style>
			.a33,.b33{fill:#fff;}.a33{stroke:#707070;}.c33{clip-path:url(#c);}.d33{fill:#03c;}.e33{fill:#0cdac1;}
		</style>
		<filter id="a" x="0" y="0" width="107" height="107" filterUnits="userSpaceOnUse">
			<feOffset input="SourceAlpha" />
			<feGaussianBlur stdDeviation="2" result="b" />
			<feFlood flood-opacity="0.149" />
			<feComposite operator="in" in2="b" />
			<feComposite in="SourceGraphic" />
		</filter>
		<clipPath id="c">
			<rect class="a33" width="63" height="63" transform="translate(-0.072 0.191)" />
		</clipPath>
	</defs>
	<g transform="translate(6 6)">
		<g class="f33" transform="matrix(1, 0, 0, 1, -6, -6)">
			<rect class="b33" width="95" height="95" rx="4" transform="translate(6 6)" />
		</g>
		<g class="c33" transform="translate(16.072 15.809)">
			<g transform="translate(31.209 31.572)">
				<g transform="translate(-25.465 -31.538)">
					<path class="d33" d="M59.516,136.033v-5.692a3.5,3.5,0,0,0-3.5-3.5h-.852a20.333,20.333,0,0,0-5.961-8.262v-.03A5.56,5.56,0,0,1,50.1,114a2.571,2.571,0,0,0-2.495-3.914,10.87,10.87,0,0,0-7.365,3.81,25.8,25.8,0,0,0-3.884-.777,1.2,1.2,0,0,0-.284,2.36,23.3,23.3,0,0,1,4.273.926,1.2,1.2,0,0,0,1.36-.478,8.274,8.274,0,0,1,6.215-3.481.194.194,0,0,1,.179.075.164.164,0,0,1,0,.194,7.9,7.9,0,0,0-1.15,6.484c0,.015.015.03.015.06a1.21,1.21,0,0,0,.448.9,17.83,17.83,0,0,1,5.841,8.262,1.2,1.2,0,0,0,1.135.822H56.08a1.121,1.121,0,0,1,1.12,1.121v5.692a1.12,1.12,0,0,1-1.12,1.12H54.437a1.2,1.2,0,0,0-1.15.837c-.747,2.435-3.989,6.514-5.259,7.993l-.284.254a8.762,8.762,0,0,0-2.973,6.081v1.912a.06.06,0,0,1-.06.06h-7.6a.06.06,0,0,1-.06-.06v-1.823a1.18,1.18,0,0,0-.388-.881,1.24,1.24,0,0,0-.926-.3A24.665,24.665,0,0,1,30,151.168a1.2,1.2,0,0,0-.941.284,1.165,1.165,0,0,0-.4.9v1.882a.06.06,0,0,1-.06.06h-7.6a.06.06,0,0,1-.06-.06V153.6a11.834,11.834,0,0,0-3.2-7.6,18.9,18.9,0,0,1-3.451-5.244l-.03-.045a16.33,16.33,0,0,1-1.345-3.571c0-.015,0-.03-.015-.03v-.075a13.353,13.353,0,0,1-.418-3.615v-.045a15.732,15.732,0,0,1,.224-2.615,1.189,1.189,0,0,0-2.346-.388,17.51,17.51,0,0,0-.254,2.988,15.864,15.864,0,0,0,.523,4.333v.03a18.376,18.376,0,0,0,1.524,4.079,21.346,21.346,0,0,0,3.9,5.886,9.5,9.5,0,0,1,2.525,6.036v.7A2.45,2.45,0,0,0,21,156.7h7.6a2.45,2.45,0,0,0,2.45-2.45v-.553a26.056,26.056,0,0,0,3.66.06v.493a2.45,2.45,0,0,0,2.45,2.45h7.6a2.45,2.45,0,0,0,2.45-2.45v-1.853a6.317,6.317,0,0,1,2.166-4.347l.344-.284.12-.119c.179-.209,4.049-4.661,5.483-8.068H56.1a3.526,3.526,0,0,0,3.421-3.541Z" transform="translate(-8.586 -93.619)" />
					<g transform="translate(0 14.118)">
						<path class="e33" d="M51.586,119.992v1.12a2.854,2.854,0,0,0,.956,5.543.956.956,0,0,1,0,1.9,1.731,1.731,0,0,1-1.24-.717.956.956,0,0,0-1.449,1.225,3.944,3.944,0,0,0,1.733,1.24v1.106a.956.956,0,1,0,1.9,0v-1.12a2.854,2.854,0,0,0-.956-5.543.956.956,0,0,1,0-1.9,1.579,1.579,0,0,1,1.031.493.956.956,0,0,0,1.33-1.374,3.675,3.675,0,0,0-1.4-.881v-1.106a.956.956,0,1,0-1.9,0Z" transform="translate(-42.263 -115.256)" />
						<path class="e33" d="M0,104.958A10.458,10.458,0,1,0,10.458,94.5,10.458,10.458,0,0,0,0,104.958Zm19.033,0a8.561,8.561,0,1,1-8.575-8.575A8.561,8.561,0,0,1,19.033,104.958Z" transform="translate(0 -94.5)" />
					</g>
					<g transform="translate(14.97)">
						<path class="e33" d="M140.491,20.747v.881a2.241,2.241,0,0,0,.747,4.362.747.747,0,0,1,0,1.494,1.35,1.35,0,0,1-.971-.568.748.748,0,0,0-1.15.956,3.107,3.107,0,0,0,1.374.971v.867a.747.747,0,0,0,1.494,0v-.867a2.241,2.241,0,0,0-.747-4.362.747.747,0,1,1,0-1.494,1.2,1.2,0,0,1,.807.388A.75.75,0,1,0,143.09,22.3a2.883,2.883,0,0,0-1.106-.687v-.867a.747.747,0,1,0-1.494,0Z" transform="translate(-133.155 -17.012)" />
						<path class="e33" d="M100.2,8.217A8.217,8.217,0,1,0,108.417,0,8.217,8.217,0,0,0,100.2,8.217Zm14.955,0a6.723,6.723,0,1,1-6.723-6.723,6.723,6.723,0,0,1,6.723,6.723Z" transform="translate(-100.2 0)" />
					</g>
				</g>
			</g>
		</g>
	</g>
</svg>
