<svg xmlns="http://www.w3.org/2000/svg" width="53.124" height="63.594" viewBox="0 0 53.124 63.594"><defs><style>.a{fill:#5c5c5c;}.b{fill:#fff;}.b,.c{stroke:#b5b5b5;stroke-width:2px;}.c,.e{fill:none;}.c{stroke-linecap:round;}.d{stroke:none;}</style></defs><path class="a" d="M7.1,9.307h21.42a1.2,1.2,0,1,0,0-2.407H7.1a1.2,1.2,0,1,0,0,2.407Z" transform="translate(8.154 7.933)"/><path class="a" d="M7.1,12.307h21.42a1.2,1.2,0,1,0,0-2.407H7.1a1.2,1.2,0,1,0,0,2.407Z" transform="translate(8.154 11.817)"/><path class="a" d="M7.1,15.307h21.42a1.2,1.2,0,1,0,0-2.407H7.1a1.2,1.2,0,1,0,0,2.407Z" transform="translate(8.154 15.701)"/><path class="a" d="M24.913,17.1a1.2,1.2,0,0,0-1.2-1.2H7.1a1.2,1.2,0,1,0,0,2.407H23.71A1.2,1.2,0,0,0,24.913,17.1Z" transform="translate(8.175 19.585)"/><g class="b" transform="translate(28.029 38.499)"><circle class="d" cx="12.548" cy="12.548" r="12.548"/><circle class="e" cx="12.548" cy="12.548" r="11.548"/></g><path class="a" d="M42.28,4.785h0A6.169,6.169,0,0,0,36.24,0H6.272A6.1,6.1,0,0,0,0,5.655v39.8a5.778,5.778,0,0,0,5.111,5.655,5.938,5.938,0,0,0,6.04,4.785H24.392a1.09,1.09,0,1,0,0-2.175H11.151a3.841,3.841,0,0,1-2.714-1.095,3.352,3.352,0,0,1-1-2.6V10.005a3.6,3.6,0,0,1,3.717-3.48H39.957a3.6,3.6,0,0,1,3.717,3.48v26.1a1.164,1.164,0,0,0,2.323,0v-26.1A5.664,5.664,0,0,0,42.28,4.785ZM5.111,10.005V48.721a3.538,3.538,0,0,1-2.788-3.263V5.655a3.849,3.849,0,0,1,3.949-3.48H36.24A3.98,3.98,0,0,1,39.957,4.35H11.151a5.857,5.857,0,0,0-6.04,5.655Z" transform="translate(0 0)"/><path class="c" d="M-1661.11-3747.783l4.975,3.93,7.8-8.974" transform="translate(1694.708 3799.557)"/></svg>