<svg xmlns="http://www.w3.org/2000/svg" width="32" height="32" viewBox="0 0 32 32"><defs><style>.a{fill:#03c;stroke:#03c;stroke-width:2px;}.b{fill:#fff;}.c{stroke:none;}.d{fill:none;}</style></defs><g class="a"><circle class="c" cx="16" cy="16" r="16"/><circle class="d" cx="16" cy="16" r="15"/></g><path class="b" d="M3,15.889v2.667A.42.42,0,0,0,3.444,19H6.111c.089,0,.267,0,.267-.089l9.778-9.778L12.778,5.756l-9.6,9.778A.462.462,0,0,0,3,15.889ZM18.733,6.556a.859.859,0,0,0,0-1.244L16.689,3.267a.859.859,0,0,0-1.244,0l-1.6,1.6,3.378,3.378C17.133,8.244,18.733,6.556,18.733,6.556Z" transform="translate(5 5)"/></svg>