<svg xmlns="http://www.w3.org/2000/svg" xmlns:xlink="http://www.w3.org/1999/xlink" width="61.189" height="47.718" viewBox="0 0 61.189 47.718"><defs><style>.a,.c,.d,.e,.f,.g,.h,.i,.j{fill:none;}.b{clip-path:url(#a);}.c,.d,.e,.f,.g{stroke:#5c5c5c;}.c,.e,.f,.g,.j{stroke-linecap:round;}.c,.d,.e,.f,.g,.h,.i,.j{stroke-miterlimit:10;}.c{stroke-width:1.373px;}.d,.e,.j{stroke-width:1.373px;}.f{stroke-width:1.373px;}.g{stroke-width:1.373px;}.h,.i,.j{stroke:#b5b5b5;}.h{stroke-width:1.373px;}.i{stroke-width:1.373px;}</style><clipPath id="a"><rect class="a" width="61.189" height="47.718"/></clipPath></defs><g transform="translate(30.594 23.859)"><g class="b" transform="translate(-30.594 -23.859)"><path class="c" d="M40.614,21h-29.2a3.624,3.624,0,0,0-3.624,3.624V57.9L5.8,59.976a3.057,3.057,0,0,0,2.21,5.176H61.536a3.212,3.212,0,0,0,2.183-5.574l-1.675-1.551.11-16.323" transform="translate(-4.26 -18.117)"/><path class="d" d="M25.7,289.8H43.2a1.579,1.579,0,0,1,1.579,1.579,1.579,1.579,0,0,0,1.579,1.579H58.429a1.579,1.579,0,0,0,1.579-1.552v-.041a1.579,1.579,0,0,1,1.579-1.551l18.369.1" transform="translate(-22.172 -250.014)"/><path class="e" d="M108.879,80.926v6.1a.11.11,0,0,1-.11.11H64.81a.11.11,0,0,1-.11-.11V60.937a.837.837,0,0,1,.837-.837H89.288" transform="translate(-55.818 -51.849)"/><line class="e" x2="5.148" transform="translate(28.707 15.184)"/><line class="f" x2="4.201" transform="translate(21.046 15.184)"/><line class="g" x2="5.601" transform="translate(12.781 15.184)"/><line class="f" x2="9.445" transform="translate(24.368 22.872)"/><line class="g" x2="8.663" transform="translate(12.781 22.872)"/><line class="e" x2="9.871" transform="translate(28.061 30.56)"/><line class="g" x2="12.466" transform="translate(12.781 30.56)"/><path class="h" d="M331.772,38.7a3.871,3.871,0,1,0,3.871,3.871A3.872,3.872,0,0,0,331.772,38.7Z" transform="translate(-282.884 -33.387)"/><path class="i" d="M315.984,108.572a5.345,5.345,0,0,0-2.224-4.27,8.732,8.732,0,0,0-5.368-1.7,8.841,8.841,0,0,0-5.368,1.689,5.383,5.383,0,0,0-2.224,4.27" transform="translate(-259.504 -88.514)"/><ellipse class="j" cx="10.914" cy="10.914" rx="10.914" ry="10.914" transform="translate(38.097 1.085)"/></g></g></svg>