<svg xmlns="http://www.w3.org/2000/svg" xmlns:xlink="http://www.w3.org/1999/xlink" width="24" height="24" viewBox="0 0 24 24"><defs><style>.a{fill:#03c;stroke:#03c;}.a,.b{stroke-width:2px;}.b{fill:#b5b5b5;stroke:#b5b5b5;}.c{clip-path:url(#a);}.d{fill:#fff;}.e{stroke:none;}.f{fill:none;}</style><clipPath id="a"><circle class="a" cx="12" cy="12" r="12" transform="translate(2996 -331)"/></clipPath></defs><g class="b"><circle class="e" cx="12" cy="12" r="12"/><circle class="f" cx="12" cy="12" r="11"/></g><g class="c" transform="translate(-2996 331)"><path class="d" d="M140.754,108.743l-.022-3.237.035-4.708v0a2.738,2.738,0,0,0-1.011-2.133l-2.389-2.274h0a3.226,3.226,0,0,0-4.248-.031l-.172.15-2.213,2.164a2.733,2.733,0,0,0-1.02,2.133l-.013,8.307c0,1.515.79,2.747,2.305,2.747l6.386,0c1.784,0,2.367-1.078,2.367-2.734Zm-3.343-4.478a.689.689,0,1,1-1.378,0,.282.282,0,0,0-.093-.212.374.374,0,0,0-.265-.1h-.6a.575.575,0,0,0-.4.159.51.51,0,0,0-.159.38v.155a.577.577,0,0,0,.556.583h.632a1.935,1.935,0,0,1,1.365.552,1.893,1.893,0,0,1,.574,1.365v.071a1.871,1.871,0,0,1-.548,1.334,1.929,1.929,0,0,1-1.108.543l-.009.4a.675.675,0,0,1-.2.473.7.7,0,0,1-.5.2.689.689,0,0,1-.676-.7l0-.358a1.724,1.724,0,0,1-1.126-.473,1.656,1.656,0,0,1-.512-1.206.689.689,0,1,1,1.378,0,.3.3,0,0,0,.088.216.354.354,0,0,0,.252.093h1.025a.53.53,0,0,0,.561-.526v-.071a.541.541,0,0,0-.159-.384.575.575,0,0,0-.4-.159h-.632a1.95,1.95,0,0,1-1.934-1.956V104.5a1.89,1.89,0,0,1,.556-1.347l.013-.013a1.938,1.938,0,0,1,.9-.495l-.009-.424a.687.687,0,0,1,1.373-.022l.009.42a1.716,1.716,0,0,1,.892.446A1.6,1.6,0,0,1,137.411,104.265Zm-.9-5.949a1.3,1.3,0,1,1-1.3-1.3A1.3,1.3,0,0,1,136.514,98.317Z" transform="translate(2943.043 -477.025) rotate(30)"/></g></svg>