<svg xmlns="http://www.w3.org/2000/svg" xmlns:xlink="http://www.w3.org/1999/xlink" width="69" height="69" viewBox="0 0 69 69">
	<defs>
		<style>
			.a11{fill:#fff;stroke:#707070;}.b11,.e11,.f11,.g11{fill:none;}.c11{clip-path:url(#a);}.d11{clip-path:url(#b);}.e11,.g11{stroke:#03c;}.e11,.f11,.g11{stroke-linecap:round;stroke-width:2px;}.e11{stroke-linejoin:round;}.f11{stroke:#0cdac1;}.f11,.g11{stroke-miterlimit:10;}.h11{fill:#0cdac1;}
		</style>
		<clipPath id="a">
			<rect class="a11" width="69" height="69" transform="translate(0.368 0.368)" />
		</clipPath>
		<clipPath id="b">
			<rect class="b11" width="56.842" height="50.757" />
		</clipPath>
	</defs>
	<g class="c11" transform="translate(-0.368 -0.368)">
		<g transform="translate(6.316 9.474)">
			<g class="d11">
				<path class="e11" d="M57.615,104.19l1.117,2.126a12.112,12.112,0,0,1,1.3,5.466v13.431a1.83,1.83,0,0,1-1.827,1.834H50.784a1.492,1.492,0,0,1-1.489-1.46l-.058-2.382v-1.074a.8.8,0,0,0-.8-.806H21.52a.8.8,0,0,0-.8.806v2.861a2.052,2.052,0,0,1-2.048,2.055H11.955A1.958,1.958,0,0,1,10,125.084v-12.4a15.321,15.321,0,0,1,1.769-7.148l2.35-4.473q.593-1.121,1.094-2.289l3.677-8.537a2.165,2.165,0,0,1,1.734-1.3l6.318-.759q3.386-.409,6.784-.479" transform="translate(-8.836 -77.458)" />
				<path class="f11" d="M344.4,288.884q3.107-.222,6.26-.584" transform="translate(-304.325 -254.63)" />
				<path class="f11" d="M53,285.9q3.374.4,6.912.677" transform="translate(-46.833 -252.51)" />
				<path class="g11" d="M171.2,295.6q3.281.152,6.656.175" transform="translate(-151.279 -261.078)" />
				<path class="g11" d="M228.4,296.128h.477q3.747.023,7.6-.128" transform="translate(-201.823 -261.431)" />
				<path class="e11" d="M54.5,194.9a143.664,143.664,0,0,0,26.309,1.285" transform="translate(-48.158 -172.138)" />
			</g>
			<g transform="translate(27.454 3.1)">
				<path class="h11" d="M241.786,39.118a5.709,5.709,0,1,1,6.784-5.793,8.128,8.128,0,0,1,.989-.07h.268a6.949,6.949,0,1,0-8.3,7.1,8.1,8.1,0,0,1,.256-1.238" transform="translate(-235.938 -26.545)" />
				<path class="h11" d="M279.222,56.489a.632.632,0,0,0,.186.444,8.18,8.18,0,0,1,2.339-2.838v-.14a1.9,1.9,0,0,0-1.9-1.9.636.636,0,0,1,0-1.273,1.011,1.011,0,0,1,.687.327.631.631,0,0,0,.884-.9,2.443,2.443,0,0,0-.931-.584v-.736a.634.634,0,1,0-1.268,0v.747a1.9,1.9,0,0,0,.628,3.69.636.636,0,0,1,0,1.273,1.149,1.149,0,0,1-.815-.479.633.633,0,1,0-.966.818,2.618,2.618,0,0,0,1.152.829Z" transform="translate(-273.036 -45.715)" />
				<path class="h11" d="M419.538,79.07v.607a1.554,1.554,0,0,0,.512,3.025.52.52,0,0,1,0,1.039.951.951,0,0,1-.675-.4.517.517,0,1,0-.791.666,2.141,2.141,0,0,0,.943.677v.607a.518.518,0,1,0,1.036,0v-.607a1.554,1.554,0,0,0-.512-3.025.52.52,0,0,1,0-1.039.825.825,0,0,1,.559.269.519.519,0,0,0,.721-.747,2,2,0,0,0-.756-.479v-.6a.518.518,0,1,0-1.036,0" transform="translate(-397.225 -72.477)" />
				<path class="h11" d="M392.441,60.8a5.691,5.691,0,0,0-5.341,3.761,8.133,8.133,0,0,1,.9.584,4.656,4.656,0,1,1,3.223,5.863c.012.21.023.42.023.642s0,.292-.012.432a5.708,5.708,0,1,0,1.21-11.282" transform="translate(-369.511 -56.798)" />
				<path class="h11" d="M333.852,109.9v.864a2.22,2.22,0,0,0,.733,4.309.742.742,0,0,1,0,1.483,1.327,1.327,0,0,1-.954-.561.736.736,0,1,0-1.129.946,3.061,3.061,0,0,0,1.35.958v.864a.739.739,0,1,0,1.478,0V117.9a2.22,2.22,0,0,0-.733-4.309.742.742,0,0,1,0-1.483,1.152,1.152,0,0,1,.791.385.738.738,0,0,0,1.024-1.063,2.837,2.837,0,0,0-1.082-.677v-.864a.739.739,0,1,0-1.478,0" transform="translate(-321.115 -99.503)" />
				<path class="h11" d="M283.4,92.128A8.1,8.1,0,1,0,291.5,84a8.114,8.114,0,0,0-8.1,8.128m14.731,0a6.633,6.633,0,1,1-6.633-6.657,6.645,6.645,0,0,1,6.633,6.657" transform="translate(-277.877 -77.29)" />
			</g>
		</g>
	</g>
</svg>
