<svg xmlns="http://www.w3.org/2000/svg" xmlns:xlink="http://www.w3.org/1999/xlink" width="107" height="107" viewBox="0 0 107 107">
	<defs>
		<style>
			.a66,.c66{fill:#fff;}.a66{stroke:#707070;}.b66,.f66,.g66{fill:none;}.d66{clip-path:url(#c);}.e66{clip-path:url(#d);}.f66{stroke:#03c;stroke-width:1.995px;}.f66,.g66{stroke-linecap:round;stroke-miterlimit:10;}.g66{stroke:#0cdac1;stroke-width:2px;}.h66{fill:#03c;}
		</style>
		<filter id="a" x="0" y="0" width="107" height="107" filterUnits="userSpaceOnUse">
			<feOffset input="SourceAlpha" />
			<feGaussianBlur stdDeviation="2" result="b" />
			<feFlood flood-opacity="0.149" />
			<feComposite operator="in" in2="b" />
			<feComposite in="SourceGraphic" />
		</filter>
		<clipPath id="c">
			<rect class="a66" width="64" height="64" transform="translate(0.048 0.048)" />
		</clipPath>
		<clipPath id="d">
			<rect class="b66" width="56.312" height="56.31" />
		</clipPath>
	</defs>
	<g transform="translate(6 6)">
		<g class="i66" transform="matrix(1, 0, 0, 1, -6, -6)">
			<rect class="c66" width="95" height="95" rx="4" transform="translate(6 6)" />
		</g>
		<g class="d66" transform="translate(14.452 16.452)">
			<g transform="translate(3.892 3.653)">
				<g class="e66">
					<path class="f66" d="M11.9,50.289l5.437,5.437a.969.969,0,0,0,1.3.055l3.874-3.21a22.207,22.207,0,0,0,6.046,2.56l.484,5.009A.955.955,0,0,0,30.01,61h7.72a.955.955,0,0,0,.969-.858l.484-5.022a21.709,21.709,0,0,0,6.06-2.546l3.86,3.21a.969.969,0,0,0,1.3-.055l5.451-5.437a.968.968,0,0,0,.055-1.3L52.7,45.115a22.207,22.207,0,0,0,2.56-6.046l4.953-.484a.969.969,0,0,0,.872-.969V29.9a.968.968,0,0,0-.872-.969l-5.022-.484a21.708,21.708,0,0,0-2.546-6.06l3.2-3.86a.969.969,0,0,0-.055-1.3l-5.368-5.437a.968.968,0,0,0-1.3-.069l-3.874,3.21a22.193,22.193,0,0,0-6.046-2.56l-.484-5.009a.955.955,0,0,0-.969-.858h-7.72a.955.955,0,0,0-.969.858l-.484,5.022a21.7,21.7,0,0,0-6.06,2.546l-3.86-3.21a.969.969,0,0,0-1.3.055L11.9,17.222a.969.969,0,0,0-.055,1.3l3.21,3.874a22.206,22.206,0,0,0-2.56,6.046l-5.022.484A.969.969,0,0,0,6.6,29.9v7.72m5.908,1.453a21.722,21.722,0,0,0,2.546,6.06" transform="translate(-5.687 -5.6)" />
					<path class="g66" d="M125.841,107.058a13.656,13.656,0,1,0,11.373,10.363" transform="translate(-95.015 -92.129)" />
					<path class="h66" d="M162.591,171.484l-4.732-5.6a1.439,1.439,0,0,1-.014-1.771.913.913,0,0,1,1.453-.028l4.012,4.746,7.817-9.242h.014a.913.913,0,0,1,1.453.042,1.439,1.439,0,0,1-.028,1.771l-8.537,10.1a.913.913,0,0,1-1.439,0" transform="translate(-135.749 -137.212)" />
				</g>
			</g>
		</g>
	</g>
</svg>
