<svg xmlns="http://www.w3.org/2000/svg" xmlns:xlink="http://www.w3.org/1999/xlink" width="24" height="24" viewBox="0 0 24 24"><defs><style>.a{fill:#03c;}.a,.b,.e{stroke:#b5b5b5;}.a,.b{stroke-width:2px;}.b{fill:#b5b5b5;}.c{clip-path:url(#a);}.d{fill:#fff;}.e,.g{fill:none;}.f{stroke:none;}</style><clipPath id="a"><circle class="a" cx="12" cy="12" r="12" transform="translate(2996 -331)"/></clipPath></defs><g class="b"><circle class="f" cx="12" cy="12" r="12"/><circle class="g" cx="12" cy="12" r="11"/></g><g class="c" transform="translate(-2996 331)"><g transform="translate(2919.667 -327.805)"><path class="d" d="M96.728,32.134H95.069v.886a2.33,2.33,0,0,1-2.327,2.327H86.094a2.33,2.33,0,0,1-2.327-2.327v-.886H82.109a.776.776,0,0,0-.776.776V48.941a.776.776,0,0,0,.776.776H96.728a.776.776,0,0,0,.776-.776V32.91A.776.776,0,0,0,96.728,32.134ZM85.643,44.164a.776.776,0,1,1-1.1,1.1l-.282-.282-.282.282a.776.776,0,1,1-1.1-1.1l.282-.282-.282-.282a.776.776,0,0,1,1.1-1.1l.282.282.282-.282a.776.776,0,0,1,1.1,1.1l-.282.282Zm.831-5.89-1.662,1.662a.776.776,0,0,1-1.1,0l-.831-.831a.776.776,0,1,1,1.1-1.1l.282.282,1.113-1.113a.776.776,0,1,1,1.1,1.1Zm8.93,6.383H88.475a.776.776,0,0,1,0-1.552H95.4a.776.776,0,0,1,0,1.552Zm0-5.325H88.249a.776.776,0,0,1,0-1.552H95.4a.776.776,0,0,1,0,1.552Z" transform="translate(-1.142 -29.136)"/><path class="d" d="M177.509,3.324h6.648a.776.776,0,0,0,.776-.776V.776A.776.776,0,0,0,184.156,0h-6.648a.776.776,0,0,0-.776.776V2.548A.776.776,0,0,0,177.509,3.324Z" transform="translate(-92.556 1.336)"/></g><g class="e" transform="translate(2996 -331)"><circle class="f" cx="12" cy="12" r="12"/><circle class="g" cx="12" cy="12" r="11.5"/></g></g></svg>